<mxfile host="app.diagrams.net" modified="2024-01-22T07:58:12.409Z" agent="Mozilla/5.0 (Windows NT 10.0; Win64; x64) AppleWebKit/537.36 (KHTML, like Gecko) Chrome/119.0.0.0 Safari/537.36" etag="_V0kU7KSE0pUbXyLM8Tk" version="22.1.20" type="github">
  <diagram name="第 1 页" id="buYK50_n-58TJnyxpLri">
    <mxGraphModel dx="1050" dy="557" grid="1" gridSize="10" guides="1" tooltips="1" connect="1" arrows="1" fold="1" page="1" pageScale="1" pageWidth="827" pageHeight="1169" math="0" shadow="0">
      <root>
        <mxCell id="0" />
        <mxCell id="1" parent="0" />
        <mxCell id="j9wXNBpga4At5Q3Up0xu-1" value="" style="group" vertex="1" connectable="0" parent="1">
          <mxGeometry x="250" y="110" width="120" height="40" as="geometry" />
        </mxCell>
        <mxCell id="j9wXNBpga4At5Q3Up0xu-2" value="肺" style="ellipse;whiteSpace=wrap;html=1;fontSize=13;" vertex="1" parent="j9wXNBpga4At5Q3Up0xu-1">
          <mxGeometry width="76" height="40" as="geometry" />
        </mxCell>
        <mxCell id="j9wXNBpga4At5Q3Up0xu-3" value="" style="endArrow=classic;html=1;rounded=0;exitX=1;exitY=0.5;exitDx=0;exitDy=0;" edge="1" parent="j9wXNBpga4At5Q3Up0xu-1" source="j9wXNBpga4At5Q3Up0xu-2" target="j9wXNBpga4At5Q3Up0xu-4">
          <mxGeometry width="50" height="50" relative="1" as="geometry">
            <mxPoint x="127" y="21" as="sourcePoint" />
            <mxPoint x="272" y="20" as="targetPoint" />
          </mxGeometry>
        </mxCell>
        <mxCell id="j9wXNBpga4At5Q3Up0xu-4" value="肺朝百脉" style="text;html=1;strokeColor=#d79b00;fillColor=#ffe6cc;align=center;verticalAlign=middle;whiteSpace=wrap;rounded=0;" vertex="1" parent="j9wXNBpga4At5Q3Up0xu-1">
          <mxGeometry x="60" y="5" width="60" height="30" as="geometry" />
        </mxCell>
        <mxCell id="j9wXNBpga4At5Q3Up0xu-5" value="" style="group" vertex="1" connectable="0" parent="1">
          <mxGeometry x="354" y="170" width="120" height="40" as="geometry" />
        </mxCell>
        <mxCell id="j9wXNBpga4At5Q3Up0xu-6" value="肺" style="ellipse;whiteSpace=wrap;html=1;fontSize=13;" vertex="1" parent="j9wXNBpga4At5Q3Up0xu-5">
          <mxGeometry width="76" height="40" as="geometry" />
        </mxCell>
        <mxCell id="j9wXNBpga4At5Q3Up0xu-7" value="" style="endArrow=classic;html=1;rounded=0;exitX=1;exitY=0.5;exitDx=0;exitDy=0;" edge="1" parent="j9wXNBpga4At5Q3Up0xu-5" source="j9wXNBpga4At5Q3Up0xu-6" target="j9wXNBpga4At5Q3Up0xu-8">
          <mxGeometry width="50" height="50" relative="1" as="geometry">
            <mxPoint x="127" y="21" as="sourcePoint" />
            <mxPoint x="272" y="20" as="targetPoint" />
          </mxGeometry>
        </mxCell>
        <mxCell id="j9wXNBpga4At5Q3Up0xu-8" value="肺朝百脉" style="text;html=1;strokeColor=#d79b00;fillColor=#ffe6cc;align=center;verticalAlign=middle;whiteSpace=wrap;rounded=0;" vertex="1" parent="j9wXNBpga4At5Q3Up0xu-5">
          <mxGeometry x="60" y="5" width="60" height="30" as="geometry" />
        </mxCell>
      </root>
    </mxGraphModel>
  </diagram>
</mxfile>
